<?xml version="1.0" encoding="UTF-8" standalone="no"?>
<!-- Created with Inkscape (http://www.inkscape.org/) -->

<svg
   version="1.1"
   id="svg1"
   width="1064"
   height="1008"
   viewBox="0 0 1064 1008"
   xmlns="http://www.w3.org/2000/svg"
   xmlns:svg="http://www.w3.org/2000/svg">
  <defs
     id="defs1" />
  <g
     id="g1"
     style="display:inline">
    <path
       style="display:inline;fill:#000000"
       d="m 381.73133,917.33392 c -19.27011,-3.20749 -37.94054,-16.98821 -46.51788,-34.33502 -7.98975,-16.15851 -7.67218,-10.81256 -7.68006,-129.28277 l -0.007,-105.23295 -110.75,-0.26705 -110.75,-0.26705 -5.6816,-2.79009 c -23.49653,-11.53852 -21.68232,-46.50831 2.88977,-55.70191 5.25393,-1.96575 7.66999,-2.008 114.82934,-2.008 h 109.46248 v -37.94304 -37.94305 l -52.27328,-0.30695 -52.27329,-0.30696 -6.5341,-3.21784 c -20.15212,-9.92428 -21.35161,-41.28424 -1.91933,-50.17993 3.02782,-1.38608 10.85254,-1.66968 58,-2.10223 l 54.5,-0.5 v -45.5 -45.5 l -115.5,-0.5 -115.5,-0.5 -5,-2.30122 c -23.83142,-10.96829 -22.96403,-46.44187 1.36659,-55.88936 4.34935,-1.68884 11.69892,-1.81651 119.88341,-2.08246 l 115.25,-0.28332 v -87.3436 -87.34359 l 2.43953,-9.61692 c 6.80061,-26.808801 26.45863,-47.616241 51.55671,-54.571271 l 7.46356,-2.06826 h 335.2701 335.27012 v 54.500001 54.5 H 789.66287 c -179.37648,0 -271.66818,0.34225 -275.24567,1.02071 -17.44217,3.30783 -31.64507,17.50269 -34.88554,34.86578 -1.86497,9.99287 -1.33696,559.4199 0.54455,566.64352 2.78481,10.69161 10.90544,20.49186 21.23382,25.62568 l 4.71635,2.34431 85,0.28524 85,0.28524 29.25,57.81911 c 16.0875,31.8005 29.25,58.10964 29.25,58.46475 0,0.99348 -346.7783,0.53198 -352.79505,-0.4695 z m 491.60901,0.0372 c -33.62605,-4.93276 -62.59138,-27.65347 -74.96564,-58.80388 -7.51727,-18.92361 -7.18762,-14.50164 -7.79889,-104.61816 l -0.54943,-81 -2.68006,-5.71807 c -7.63174,-16.28278 -22.7544,-24.21498 -48.31994,-25.34496 -6.6,-0.29171 -13.85888,-0.7539 -16.13084,-1.02708 l -4.13084,-0.4967 -0.16987,-22.1195 c -0.0934,-12.16573 0.13803,-27.38361 0.51437,-33.81751 l 0.68423,-11.698 15.11648,-0.56642 c 26.44312,-0.99083 41.03423,-7.33025 49.28799,-21.41422 5.76382,-9.83522 5.60916,-7.50922 5.80465,-87.29754 0.18736,-76.46621 0.53861,-84.01196 4.60836,-99 9.89081,-36.42577 41.25003,-63.44878 85.42401,-73.61195 7.66311,-1.76307 67.51337,-3.24047 78.03221,-1.92623 l 5.45925,0.68209 1.9e-4,36.67805 1.9e-4,36.67804 h -22.75019 c -33.59272,0 -44.22657,5.42478 -51.41099,26.22695 l -2.3392,6.77305 0.2826,47 c 0.70381,117.05186 -6.26212,137.23659 -55.04493,159.5 -9.2972,4.24304 -9.24524,3.89818 -1.12059,7.43766 27.77818,12.10149 45.88872,33.75353 53.1621,63.5579 l 2.56348,10.50444 0.22533,61.5 c 0.23707,64.707 0.37052,66.76621 4.95461,76.4562 7.43377,15.71369 18.59943,20.10214 50.7274,19.93741 l 20.75,-0.10639 v 38.35639 38.35639 l -42.25,-0.12194 c -23.2375,-0.0671 -44.80872,-0.49729 -47.93604,-0.95605 z M 21.1076,505.43488 c -22.6653696,-8.8502 -21.3453396,-42.11609 1.94175,-48.93383 2.88069,-0.84337 20.1036,-1.07994 62.47703,-0.85816 l 58.5,0.30619 5.25728,2.37628 c 19.86071,8.97698 19.70489,37.28324 -0.25728,46.73641 l -5,2.36777 -59,-0.037 c -55.76385,-0.035 -59.26979,-0.14236 -63.91878,-1.95766 z"
       id="path1" />
  </g>
</svg>
